<?xml version="1.0" encoding="UTF-8" standalone="no"?>
<svg
   viewBox="0 0 512 512"
   version="1.1"
   id="svg1"
   sodipodi:docname="binoculars.svg"
   inkscape:version="1.3 (0e150ed6c4, 2023-07-21)"
   xmlns:inkscape="http://www.inkscape.org/namespaces/inkscape"
   xmlns:sodipodi="http://sodipodi.sourceforge.net/DTD/sodipodi-0.dtd"
   xmlns="http://www.w3.org/2000/svg"
   xmlns:svg="http://www.w3.org/2000/svg">
  <defs
     id="defs1" />
  <sodipodi:namedview
     id="namedview1"
     pagecolor="#ffffff"
     bordercolor="#000000"
     borderopacity="0.25"
     inkscape:showpageshadow="2"
     inkscape:pageopacity="0.0"
     inkscape:pagecheckerboard="0"
     inkscape:deskcolor="#d1d1d1"
     inkscape:zoom="1.2861282"
     inkscape:cx="256.19531"
     inkscape:cy="108.46509"
     inkscape:window-width="1280"
     inkscape:window-height="731"
     inkscape:window-x="0"
     inkscape:window-y="32"
     inkscape:window-maximized="1"
     inkscape:current-layer="path1" />
  <!--! Font Awesome Pro 6.4.0 by @fontawesome - https://fontawesome.com License - https://fontawesome.com/license (Commercial License) Copyright 2023 Fonticons, Inc. -->
  <g
     id="path1">
    <path
       id="path11"
       d="m 133.80859,32.296875 c -10.2223,0.214118 -20.26271,4.40336 -27.67912,11.427324 -7.934914,7.409393 -12.850379,17.979251 -13.238505,28.843478 -0.09126,6.140515 -0.01366,12.28374 -0.0394,18.425292 0,8.437239 0,16.874481 0,25.311721 38.102218,0 76.204428,0 114.306638,0 -0.013,-14.40498 0.026,-28.81059 -0.0194,-43.215164 -0.25205,-10.578225 -4.77975,-20.938404 -12.26493,-28.400101 -7.44448,-7.525568 -17.8064,-12.101839 -28.40176,-12.382105 -10.57805,-0.05545 -21.15755,-0.0098 -31.73612,-0.02279 -0.30912,0.0041 -0.61824,0.0082 -0.92736,0.01234 z m 211.99024,0 c -10.22231,0.214118 -20.26271,4.40336 -27.67912,11.427324 -7.93492,7.409393 -12.85038,17.979251 -13.23851,28.843478 -0.0913,6.140515 -0.0137,12.28374 -0.0394,18.425292 0,8.437239 0,16.874481 0,25.311721 38.10221,0 76.20442,0 114.30664,0 -0.013,-14.40498 0.026,-28.81059 -0.0195,-43.215164 -0.25204,-10.578225 -4.77975,-20.938404 -12.26493,-28.400101 -7.44448,-7.525568 -17.80639,-12.101839 -28.40176,-12.382105 -10.57804,-0.05545 -21.15754,-0.0098 -31.73612,-0.02279 -0.30912,0.0041 -0.61823,0.0082 -0.92735,0.01234 z M 165.09961,55.736328 c 5.75071,-0.06416 11.47629,2.674272 14.90887,7.311793 2.6564,3.48984 3.87648,7.933799 3.6966,12.291723 0,5.837239 0,11.674479 0,17.511718 -22.4668,10e-7 -44.9336,0 -67.40039,0 0.0212,-6.549987 -0.0427,-13.101484 0.0326,-19.650518 0.26828,-5.985851 3.64304,-11.741177 8.81166,-14.799823 3.29711,-2.026665 7.22106,-2.826899 11.06118,-2.664893 9.62981,0 19.25963,0 28.88945,0 z m 211.99023,0 c 5.75071,-0.06416 11.4763,2.674272 14.90888,7.311793 2.6564,3.48984 3.87647,7.933799 3.69659,12.291723 0,5.837239 0,11.674479 0,17.511718 -22.46679,10e-7 -44.93359,0 -67.40039,0 0.0212,-6.549987 -0.0427,-13.101484 0.0326,-19.650518 0.26828,-5.985851 3.64304,-11.741177 8.81166,-14.799823 3.29711,-2.026665 7.22107,-2.826899 11.06118,-2.664893 9.62982,0 19.25964,0 28.88945,0 z M 100.10938,123.14844 c -10.686183,0.2002 -21.186325,4.72444 -28.728085,12.28721 -6.783047,6.70246 -11.145609,15.77925 -12.134813,25.26442 -2.444597,19.46142 -4.841514,38.92903 -7.316183,58.38653 -0.485881,3.47525 -1.089282,6.95995 -1.773011,10.33366 -0.517315,2.51486 -1.131184,5.24055 -1.789921,7.81617 -1.15663,4.58712 -2.565982,9.24764 -4.078305,13.64052 -3.990773,11.56072 -9.279544,22.65971 -15.628247,33.10879 -14.561408,24.66902 -23.4854446,52.63024 -25.9417501,81.16931 -0.6624585,7.32019 -0.7721677,14.67442 -0.721018,22.02034 0.010431,17.21166 -0.020854,34.42377 0.015625,51.63516 0.2296742,10.57826 4.7287972,20.95084 12.1989591,28.42841 7.448425,7.56867 17.843051,12.17243 28.47155,12.45372 10.974535,0.0563 21.950502,0.008 32.925585,0.0241 30.187964,-0.009 60.376164,0.0178 90.563974,-0.0133 10.23166,-0.20677 20.28355,-4.39752 27.70655,-11.42769 7.93492,-7.40939 12.85038,-17.97925 13.23851,-28.84348 0.0913,-6.14051 0.0137,-12.28374 0.0394,-18.42529 0,-99.2901 0,-198.58021 0,-297.87031 -35.68291,0.008 -71.36603,-0.0156 -107.04882,0.0117 z m 113.88085,1.98828 c 0,57.62435 0,115.2487 0,172.87305 28.00651,0 56.01303,0 84.01954,0 0,-58.29102 0,-116.58204 0,-174.87305 -28.00651,0 -56.01303,0 -84.01954,0 0,0.66667 0,1.33333 0,2 z m 90.85157,0 c 0.004,104.36585 -0.009,208.73183 0.007,313.09761 0.0784,10.74012 4.57135,21.32749 12.13814,28.93301 7.4526,7.61146 17.87959,12.24313 28.54134,12.52534 10.97454,0.0563 21.9505,0.008 32.92559,0.0241 30.18796,-0.009 60.37616,0.0178 90.56397,-0.0133 10.23166,-0.20677 20.28355,-4.39752 27.70655,-11.42769 7.93492,-7.40939 12.85038,-17.97925 13.23851,-28.84348 0.0913,-6.14051 0.0137,-12.28374 0.0394,-18.42529 -0.0171,-14.17158 0.0349,-28.34345 -0.0273,-42.51484 -0.40368,-23.76702 -5.2547,-47.44495 -14.22912,-69.45614 -3.9466,-9.69609 -8.71768,-19.0472 -14.14554,-27.99569 -1.14416,-1.9539 -2.2092,-3.86652 -3.25525,-5.81869 -1.05136,-1.96147 -2.16191,-4.15413 -3.16697,-6.24211 -2.83555,-5.88132 -5.32295,-11.92908 -7.46484,-18.09675 -0.52453,-1.54191 -1.11124,-3.29108 -1.61584,-4.92817 -3.33405,-10.62066 -5.53624,-21.57971 -6.76128,-32.63962 -2.25237,-18.17093 -4.46061,-36.3485 -6.74051,-54.51528 -1.51963,-10.24811 -7.06546,-19.79504 -15.13473,-26.27699 -7.58347,-6.17359 -17.36305,-9.56805 -27.14295,-9.38603 -35.1586,0 -70.31719,0 -105.47578,0 0,0.66667 0,1.33333 0,2 z m -203.72266,21.45117 c 27.52865,0 55.05729,0 82.58594,0 -0.003,97.09072 0.007,194.18159 -0.005,291.27221 0.0222,5.94719 -2.99733,11.82862 -7.94331,15.16165 -3.41224,2.37648 -7.62722,3.41362 -11.75727,3.24192 -40.11424,-0.007 -80.228806,0.013 -120.34285,-0.01 -6.142837,-0.0302 -12.175681,-3.33628 -15.389462,-8.59186 -2.114014,-3.3136 -2.976387,-7.30069 -2.816126,-11.20188 0.01284,-18.96154 -0.02583,-37.9233 0.01959,-56.88468 0.09348,-7.85101 0.760287,-15.6921 1.93549,-23.45439 0.123216,-0.73633 0.287923,-1.77704 0.427068,-2.63022 0.484215,-2.83652 1.078234,-5.83548 1.674494,-8.53579 0.488644,-2.14689 1.020345,-4.37342 1.562437,-6.4066 4.157699,-15.7895 10.649262,-30.949 19.121119,-44.90359 13.601896,-22.94431 22.336785,-48.74858 25.476995,-75.23602 2.355887,-18.76088 4.668772,-37.52772 7.051521,-56.28489 0.912552,-6.03206 5.032138,-11.46098 10.631237,-13.9034 2.432516,-1.09573 5.103119,-1.63331 7.768019,-1.63269 z m 173.43945,0 c 0,42.6569 0,85.3138 0,127.9707 -12.37239,0 -24.74479,0 -37.11718,0 0,-42.6569 0,-85.3138 0,-127.9707 12.37239,0 24.74479,0 37.11718,0 z m 136.41407,0 c 6.32575,-0.0687 12.55842,3.34058 15.85699,8.74809 1.77017,2.7492 2.58724,5.98504 2.86282,9.21452 2.37894,19.18414 4.70716,38.37519 7.11808,57.55497 3.54333,25.69207 12.38385,50.62757 25.76736,72.84039 8.27258,13.83805 14.54241,28.8656 18.5842,44.47211 0.20766,0.86181 0.50169,1.98951 0.73261,2.95852 1.08526,4.55474 1.98777,9.15257 2.70294,13.77976 0.109,0.7385 0.25686,1.78179 0.38078,2.6373 1.20992,8.70953 1.66487,17.51009 1.57039,26.29942 -0.0114,17.75559 0.0228,35.51174 -0.0171,53.26698 -0.12428,6.1034 -3.48954,12.04493 -8.74272,15.18532 -3.31202,2.06693 -7.27306,2.88155 -11.14565,2.7184 -40.04758,-0.007 -80.09547,0.013 -120.14285,-0.01 -6.14569,-0.0304 -12.18297,-3.33945 -15.39381,-8.60064 -2.11224,-3.31099 -2.97137,-7.2954 -2.81178,-11.1931 0,-96.62409 0,-193.24818 0,-289.87227 27.55925,0 55.11849,0 82.67774,0 z" />
  </g>
</svg>
